<svg width="43" height="46" viewBox="0 0 43 46" fill="none" xmlns="http://www.w3.org/2000/svg">
<path d="M18.3181 40L15.6027 36.8618V40H13.6953V33.5356H15.5087L18.2241 36.7208V33.5356H20.1315V40H18.3181ZM21.6161 40V33.5356H23.6926V40H21.6161ZM29.5056 40L29.2331 39.0886H26.9687L26.6962 40H24.5728L26.9311 33.5356H29.3459L31.7042 40H29.5056ZM27.4009 37.6416H28.8009L28.1244 35.3396H28.0868L27.4009 37.6416Z" fill="black"/>
<path d="M0 8.64168L8.87618 5.90253L3.80182 16.08L0 8.64168Z" fill="#1A8CD8"/>
<path d="M31.713 7.255L25.7733 19.1672L15.7298 3.7884L28.0062 0L31.713 7.255Z" fill="#1A8CD8"/>
<path d="M24.7712 28.1659L11.996 32.1083L8.28802 24.8553L14.3578 12.6846L24.7712 28.1659Z" fill="#1A8CD8"/>
<path d="M40 23.4647L31.4338 26.1082L36.3306 16.2877L40 23.4647Z" fill="#1A8CD8"/>
</svg>
