<svg width="25" height="24" viewBox="0 0 25 24" fill="none" xmlns="http://www.w3.org/2000/svg">
<path d="M22.5053 2.24525L16.4986 2.24528V0.750176C16.4986 0.335704 16.1629 0 15.7484 0C15.334 0 14.9983 0.335704 14.9983 0.750176V2.2449H8.99686V0.750176C8.99686 0.335704 8.66115 0 8.24668 0C7.83221 0 7.49651 0.335704 7.49651 0.750176V2.2449H1.50035C0.671782 2.2449 0 2.91668 0 3.74525V22.4996C0 23.3282 0.671782 24 1.50035 24H22.5053C23.3338 24 24.0056 23.3282 24.0056 22.4996V3.74525C24.0056 2.91704 23.3338 2.24525 22.5053 2.24525ZM22.5053 22.4996H1.50035V3.74525H7.49651V4.50105C7.49651 4.9155 7.83221 5.25123 8.24668 5.25123C8.66115 5.25123 8.99686 4.9155 8.99686 4.50105V3.74563H14.9983V4.50143C14.9983 4.9159 15.334 5.25161 15.7484 5.25161C16.1629 5.25161 16.4986 4.9159 16.4986 4.50143V3.74563H22.5053V22.4996ZM17.254 11.9975H18.7544C19.1685 11.9975 19.5046 11.6615 19.5046 11.2474V9.74701C19.5046 9.33291 19.1685 8.99683 18.7544 8.99683H17.254C16.8399 8.99683 16.5039 9.33291 16.5039 9.74701V11.2474C16.5039 11.6615 16.8399 11.9975 17.254 11.9975ZM17.254 17.9986H18.7544C19.1685 17.9986 19.5046 17.6629 19.5046 17.2484V15.748C19.5046 15.3339 19.1685 14.9979 18.7544 14.9979H17.254C16.8399 14.9979 16.5039 15.3339 16.5039 15.748V17.2484C16.5039 17.6632 16.8399 17.9986 17.254 17.9986ZM12.753 14.9979H11.2526C10.8385 14.9979 10.5025 15.3339 10.5025 15.748V17.2484C10.5025 17.6629 10.8385 17.9986 11.2526 17.9986H12.753C13.1671 17.9986 13.5032 17.6629 13.5032 17.2484V15.748C13.5032 15.3343 13.1671 14.9979 12.753 14.9979ZM12.753 8.99683H11.2526C10.8385 8.99683 10.5025 9.33291 10.5025 9.74701V11.2474C10.5025 11.6615 10.8385 11.9975 11.2526 11.9975H12.753C13.1671 11.9975 13.5032 11.6615 13.5032 11.2474V9.74701C13.5032 9.33254 13.1671 8.99683 12.753 8.99683ZM6.75158 8.99683H5.25123C4.83713 8.99683 4.50105 9.33291 4.50105 9.74701V11.2474C4.50105 11.6615 4.83713 11.9975 5.25123 11.9975H6.75158C7.16568 11.9975 7.50176 11.6615 7.50176 11.2474V9.74701C7.50176 9.33254 7.16568 8.99683 6.75158 8.99683ZM6.75158 14.9979H5.25123C4.83713 14.9979 4.50105 15.3339 4.50105 15.748V17.2484C4.50105 17.6629 4.83713 17.9986 5.25123 17.9986H6.75158C7.16568 17.9986 7.50176 17.6629 7.50176 17.2484V15.748C7.50176 15.3343 7.16568 14.9979 6.75158 14.9979Z" fill="#1A8CD8"/>
</svg>
