<svg width="25" height="24" viewBox="0 0 25 24" fill="none" xmlns="http://www.w3.org/2000/svg">
<path d="M12.7816 3.97501H11.1816V12.8806L16.9623 15.628L17.6491 14.1829L12.7816 11.8695V3.97501Z" fill="#1A8CD8"/>
<path d="M12.0059 0C5.37846 0 0.00585938 5.3726 0.00585938 12C0.00585938 18.6274 5.37846 24 12.0059 24C18.6333 24 24.0059 18.6274 24.0059 12C24.0059 5.3726 18.6333 0 12.0059 0ZM12.0059 22.4C6.26211 22.4 1.60586 17.7437 1.60586 12C1.60586 6.25625 6.26211 1.6 12.0059 1.6C17.7496 1.6 22.4059 6.25625 22.4059 12C22.4059 17.7437 17.7496 22.4 12.0059 22.4Z" fill="#1A8CD8"/>
</svg>
