<svg width="57" height="57" viewBox="0 0 57 57" fill="none" xmlns="http://www.w3.org/2000/svg">
<path d="M46.8471 25.7078H9.22022C7.99403 25.7078 7 26.7018 7 27.928V28.1618C7 29.3879 7.99403 30.382 9.22022 30.382H46.8471C48.0733 30.382 49.0673 29.3879 49.0673 28.1618V27.928C49.0673 26.7018 48.0733 25.7078 46.8471 25.7078Z" fill="white"/>
<path d="M46.8471 37.3932H9.22022C7.99403 37.3932 7 38.3872 7 39.6134V39.8471C7 41.0733 7.99403 42.0673 9.22022 42.0673H46.8471C48.0733 42.0673 49.0673 41.0733 49.0673 39.8471V39.6134C49.0673 38.3872 48.0733 37.3932 46.8471 37.3932Z" fill="white"/>
<path d="M46.8471 14.0225H9.22022C7.99403 14.0225 7 15.0165 7 16.2427V16.4764C7 17.7026 7.99403 18.6966 9.22022 18.6966H46.8471C48.0733 18.6966 49.0673 17.7026 49.0673 16.4764V16.2427C49.0673 15.0165 48.0733 14.0225 46.8471 14.0225Z" fill="white"/>
</svg>
