<svg width="30" height="30" viewBox="0 0 30 30" fill="none" xmlns="http://www.w3.org/2000/svg">
<path d="M10.4469 14.661C10.4469 11.9971 12.6072 9.83695 15.2728 9.83695C17.9383 9.83695 20.0997 11.9971 20.0997 14.661C20.0997 17.325 17.9383 19.4851 15.2728 19.4851C12.6072 19.4851 10.4469 17.325 10.4469 14.661ZM7.83756 14.661C7.83756 18.765 11.1663 22.0918 15.2728 22.0918C19.3792 22.0918 22.7079 18.765 22.7079 14.661C22.7079 10.557 19.3792 7.2303 15.2728 7.2303C11.1663 7.2303 7.83756 10.557 7.83756 14.661ZM21.2647 6.93567C21.2646 7.27913 21.3664 7.61491 21.5572 7.90056C21.748 8.1862 22.0193 8.40889 22.3367 8.54045C22.6542 8.67201 23.0035 8.70654 23.3406 8.63967C23.6777 8.5728 23.9873 8.40753 24.2304 8.16477C24.4735 7.92201 24.6392 7.61266 24.7063 7.27583C24.7735 6.939 24.7392 6.58983 24.6079 6.27247C24.4765 5.9551 24.2539 5.68381 23.9682 5.49288C23.6825 5.30195 23.3466 5.19997 23.003 5.19984H23.0023C22.5416 5.20005 22.0999 5.38298 21.7741 5.70845C21.4483 6.03391 21.2651 6.4753 21.2647 6.93567V6.93567ZM9.42292 26.4402C8.0112 26.3759 7.24389 26.1409 6.73397 25.9424C6.05793 25.6793 5.57558 25.3661 5.06844 24.8599C4.5613 24.3538 4.24738 23.8722 3.98536 23.1966C3.78658 22.6872 3.55143 21.9201 3.48725 20.5092C3.41705 18.9838 3.40304 18.5256 3.40304 14.6612C3.40304 10.7967 3.41821 10.3397 3.48725 8.8131C3.55154 7.40222 3.78843 6.63664 3.98536 6.12575C4.24854 5.45013 4.562 4.96807 5.06844 4.46123C5.57489 3.9544 6.05677 3.64066 6.73397 3.37879C7.24365 3.18013 8.0112 2.94512 9.42292 2.88099C10.9492 2.81083 11.4077 2.79682 15.2728 2.79682C19.1378 2.79682 19.5968 2.81199 21.1243 2.88099C22.536 2.94524 23.3021 3.18199 23.8133 3.37879C24.4893 3.64066 24.9717 3.95509 25.4788 4.46123C25.9859 4.96737 26.2987 5.45013 26.5619 6.12575C26.7607 6.63514 26.9958 7.40222 27.06 8.8131C27.1302 10.3397 27.1442 10.7967 27.1442 14.6612C27.1442 18.5256 27.1302 18.9826 27.06 20.5092C26.9957 21.9201 26.7594 22.6869 26.5619 23.1966C26.2987 23.8722 25.9852 24.3542 25.4788 24.8599C24.9724 25.3656 24.4893 25.6793 23.8133 25.9424C23.3036 26.141 22.536 26.376 21.1243 26.4402C19.598 26.5103 19.1395 26.5243 15.2728 26.5243C11.406 26.5243 10.9487 26.5103 9.42292 26.4402V26.4402ZM9.30303 0.277578C7.76157 0.347734 6.70825 0.592006 5.78838 0.949732C4.83572 1.31915 4.02926 1.81476 3.22337 2.61889C2.41748 3.42302 1.92286 4.23027 1.55322 5.18235C1.19527 6.10225 0.950856 7.15436 0.880658 8.6949C0.809302 10.2379 0.792969 10.7312 0.792969 14.661C0.792969 18.5909 0.809302 19.0842 0.880658 20.6272C0.950856 22.1678 1.19527 23.2198 1.55322 24.1397C1.92286 25.0912 2.4176 25.8994 3.22337 26.7032C4.02914 27.507 4.83572 28.0019 5.78838 28.3723C6.70999 28.7301 7.76157 28.9743 9.30303 29.0445C10.8477 29.1147 11.3405 29.1321 15.2728 29.1321C19.205 29.1321 19.6986 29.1158 21.2425 29.0445C22.7841 28.9743 23.8367 28.7301 24.7571 28.3723C25.7092 28.0019 26.5162 27.5073 27.3221 26.7032C28.128 25.8991 28.6216 25.0912 28.9923 24.1397C29.3502 23.2198 29.5958 22.1677 29.6648 20.6272C29.735 19.0831 29.7514 18.5909 29.7514 14.661C29.7514 10.7312 29.735 10.2379 29.6648 8.6949C29.5946 7.15424 29.3502 6.10167 28.9923 5.18235C28.6216 4.23085 28.1267 3.42429 27.3221 2.61889C26.5175 1.81348 25.7092 1.31915 24.7583 0.949732C23.8367 0.592006 22.7839 0.346577 21.2436 0.277578C19.6997 0.207422 19.2062 0.189941 15.2739 0.189941C11.3417 0.189941 10.8477 0.206265 9.30303 0.277578Z" fill="#151515"/>
</svg>
