<svg width="70" height="71" viewBox="0 0 70 71" fill="none" xmlns="http://www.w3.org/2000/svg">
<path fill-rule="evenodd" clip-rule="evenodd" d="M24.0005 0.903198C20.0518 0.903198 16.265 2.47179 13.4729 5.2639L0 18.7367V24.9037C0 29.2607 1.87152 33.1805 4.85452 35.9032C1.87152 38.6258 0 42.5456 0 46.9026V53.0696L13.4729 66.5425C16.265 69.3346 20.0518 70.9032 24.0005 70.9032C28.3575 70.9032 32.2774 69.0317 35 66.0487C37.7226 69.0317 41.6425 70.9032 45.9995 70.9032C49.9482 70.9032 53.735 69.3346 56.5271 66.5425L70 53.0696V46.9026C70 42.5456 68.1286 38.6258 65.1455 35.9032C68.1286 33.1805 70 29.2607 70 24.9037V18.7367L56.5271 5.2639C53.735 2.47179 49.9482 0.903198 45.9995 0.903198C41.6425 0.903198 37.7226 2.77471 35 5.75771C32.2774 2.77471 28.3575 0.903198 24.0005 0.903198ZM45.0779 35.9032C44.9101 35.75 44.7454 35.5927 44.5841 35.4314L35 25.8473L25.416 35.4314C25.2546 35.5927 25.0899 35.75 24.9221 35.9032C25.0899 36.0563 25.2546 36.2136 25.416 36.375L35 45.959L44.5841 36.375C44.7454 36.2136 44.9101 36.0563 45.0779 35.9032ZM38.8889 53.0696V56.0149C38.8889 59.9419 42.0725 63.1255 45.9995 63.1255C47.8853 63.1255 49.6939 62.3763 51.0274 61.0428L62.2223 49.8479V46.9026C62.2223 42.9756 59.0387 39.792 55.1117 39.792C53.2259 39.792 51.4173 40.5412 50.0838 41.8747L38.8889 53.0696ZM31.1111 53.0696L19.9162 41.8747C18.5827 40.5412 16.7742 39.792 14.8883 39.792C10.9613 39.792 7.77777 42.9756 7.77777 46.9026V49.8479L18.9726 61.0428C20.3061 62.3763 22.1147 63.1255 24.0005 63.1255C27.9275 63.1255 31.1111 59.9419 31.1111 56.0149V53.0696ZM31.1111 15.7915V18.7367L19.9162 29.9316C18.5827 31.2651 16.7742 32.0143 14.8883 32.0143C10.9613 32.0143 7.77777 28.8307 7.77777 24.9037V21.9585L18.9726 10.7636C20.3061 9.43012 22.1147 8.68098 24.0005 8.68098C27.9275 8.68098 31.1111 11.8645 31.1111 15.7915ZM50.0838 29.9316L38.8889 18.7367V15.7915C38.8889 11.8645 42.0725 8.68098 45.9995 8.68098C47.8853 8.68098 49.6939 9.43012 51.0274 10.7636L62.2223 21.9585V24.9037C62.2223 28.8307 59.0387 32.0143 55.1117 32.0143C53.2259 32.0143 51.4173 31.2651 50.0838 29.9316Z" fill="#FF630B"/>
</svg>
