<svg width="14" height="14" viewBox="0 0 14 14" fill="none" xmlns="http://www.w3.org/2000/svg">
<path fill-rule="evenodd" clip-rule="evenodd" d="M1.54171 0.554199C1.019 0.554199 0.594971 0.96532 0.594971 1.47182V12.4469C0.594971 12.9534 1.01905 13.3642 1.54171 13.3642H12.4582C12.9811 13.3642 13.405 12.9534 13.405 12.4467V1.47182C13.405 0.96532 12.9811 0.554199 12.4582 0.554199H1.54171ZM4.4877 5.50741V11.2745H2.57081V5.50741H4.4877ZM4.61405 3.72387C4.61405 4.2773 4.19798 4.72015 3.52966 4.72015L3.5171 4.7201C2.87374 4.7201 2.45782 4.27725 2.45782 3.72382C2.45782 3.15783 2.8863 2.72734 3.54237 2.72734C4.19798 2.72734 4.60154 3.15783 4.61405 3.72387ZM7.46548 11.2745H5.54873C5.54873 11.2745 5.57385 6.04863 5.54883 5.50761H7.46563V6.32392C7.72043 5.93104 8.17647 5.3722 9.19323 5.3722C10.4544 5.3722 11.3999 6.1965 11.3999 7.96783V11.2745H9.4832V8.18961C9.4832 7.41425 9.20564 6.88544 8.5122 6.88544C7.98253 6.88544 7.66714 7.24207 7.52863 7.58658C7.47799 7.70953 7.46548 7.88211 7.46548 8.05425V11.2745Z" fill="black"/>
</svg>
