<svg width="14" height="10" viewBox="0 0 14 10" fill="none" xmlns="http://www.w3.org/2000/svg">
<path d="M13.0247 1.18918C12.579 1.38667 12.1002 1.52011 11.5969 1.58043C12.1162 1.26967 12.5048 0.780573 12.69 0.204398C12.2021 0.494224 11.6681 0.698229 11.1112 0.807546C10.7367 0.407688 10.2406 0.142656 9.70008 0.0535968C9.15952 -0.0354621 8.60468 0.0564351 8.12171 0.315021C7.63873 0.573607 7.25463 0.984414 7.02906 1.48366C6.80348 1.98291 6.74904 2.54266 6.87418 3.07602C5.88549 3.02638 4.91829 2.76941 4.03534 2.32177C3.1524 1.87414 2.37344 1.24585 1.74903 0.477683C1.53552 0.845977 1.41276 1.27298 1.41276 1.72775C1.41252 2.13714 1.51333 2.54026 1.70626 2.90134C1.89918 3.26242 2.17825 3.57031 2.51871 3.79767C2.12387 3.7851 1.73775 3.67842 1.39247 3.48648V3.51851C1.39243 4.0927 1.59105 4.64921 1.95462 5.09363C2.31819 5.53805 2.82432 5.843 3.38713 5.95672C3.02086 6.05585 2.63685 6.07045 2.2641 5.99942C2.42289 6.49348 2.73221 6.92551 3.14874 7.23504C3.56527 7.54456 4.06817 7.71609 4.58702 7.7256C3.70623 8.41704 2.61846 8.7921 1.49869 8.79045C1.30034 8.79051 1.10215 8.77892 0.905151 8.75576C2.04178 9.48657 3.3649 9.87442 4.71619 9.87292C9.29051 9.87292 11.7912 6.08429 11.7912 2.79847C11.7912 2.69172 11.7885 2.5839 11.7837 2.47715C12.2701 2.12538 12.69 1.68979 13.0236 1.19079L13.0247 1.18918Z" fill="black"/>
</svg>
